<svg width="644" height="403" viewBox="0 0 644 403" fill="none" xmlns="http://www.w3.org/2000/svg">
<path opacity="0.59" d="M485.68 126.729V318.139C485.68 324.239 483.256 330.09 478.943 334.403C474.63 338.717 468.779 341.14 462.679 341.14H180.2C174.1 341.14 168.25 338.717 163.936 334.403C159.623 330.089 157.199 324.239 157.199 318.139V126.729C157.199 120.629 159.622 114.779 163.936 110.465C168.249 106.152 174.1 103.729 180.2 103.729L336.971 103.729H343.471H350.471L462.679 103.729C468.779 103.729 474.63 106.152 478.943 110.465C483.256 114.779 485.68 120.629 485.68 126.729Z" fill="#D9D9D9"/>
<path d="M478.943 334.403C483.256 330.09 485.68 324.239 485.68 318.139V126.729C485.68 120.629 483.256 114.779 478.943 110.465C474.63 106.152 468.779 103.729 462.679 103.729L354.971 103.729M331.971 103.729H180.2C174.1 103.729 168.249 106.152 163.936 110.465C159.622 114.779 157.199 120.629 157.199 126.729V318.139C157.199 324.239 159.623 330.089 163.936 334.403C168.25 338.717 174.1 341.14 180.2 341.14H356.971" stroke="#9299A0" stroke-width="5" stroke-miterlimit="10" stroke-linecap="round"/>
<path d="M462.678 114.653H180.199C173.529 114.653 168.123 120.06 168.123 126.729V318.139C168.123 324.808 173.529 330.215 180.199 330.215H462.678C469.347 330.215 474.753 324.808 474.753 318.139V126.729C474.753 120.06 469.347 114.653 462.678 114.653Z" fill="white"/>
<path d="M474.753 145.817V126.729C474.753 125.143 474.441 123.573 473.834 122.108C473.227 120.643 472.338 119.311 471.216 118.19C470.095 117.069 468.764 116.179 467.299 115.573C465.834 114.966 464.263 114.653 462.678 114.653H180.199C178.613 114.653 177.043 114.966 175.577 115.573C174.112 116.179 172.781 117.069 171.66 118.19C170.539 119.311 169.649 120.643 169.042 122.108C168.435 123.573 168.123 125.143 168.123 126.729V145.817H474.753Z" fill="#004395"/>
<path d="M181.532 133.718C183.853 133.718 185.735 131.836 185.735 129.514C185.735 127.193 183.853 125.311 181.532 125.311C179.21 125.311 177.328 127.193 177.328 129.514C177.328 131.836 179.21 133.718 181.532 133.718Z" fill="white"/>
<path d="M194.045 133.718C196.367 133.718 198.249 131.836 198.249 129.514C198.249 127.193 196.367 125.311 194.045 125.311C191.724 125.311 189.842 127.193 189.842 129.514C189.842 131.836 191.724 133.718 194.045 133.718Z" fill="white"/>
<path d="M206.559 133.718C208.881 133.718 210.763 131.836 210.763 129.514C210.763 127.193 208.881 125.311 206.559 125.311C204.237 125.311 202.355 127.193 202.355 129.514C202.355 131.836 204.237 133.718 206.559 133.718Z" fill="white"/>
<path d="M320.308 176.819C325.971 176.819 330.561 172.229 330.561 166.566C330.561 160.903 325.971 156.312 320.308 156.312C314.645 156.312 310.055 160.903 310.055 166.566C310.055 172.229 314.645 176.819 320.308 176.819Z" fill="#C8CCCF"/>
<path d="M429.971 212C441.845 212 451.471 202.374 451.471 190.5C451.471 178.626 441.845 169 429.971 169C418.097 169 408.471 178.626 408.471 190.5C408.471 202.374 418.097 212 429.971 212Z" fill="#0099CC"/>
<path d="M330.544 166.033C327.75 166.963 324.841 167.5 321.899 167.628C317.887 167.825 313.874 167.251 310.078 165.939C300.646 162.654 293.88 154.984 293.457 145.749C293.21 140.33 292.277 112.085 292.277 112.085L307.259 140.33C299.015 140.709 297.937 140.592 297.937 140.592C297.937 140.592 297.813 143.651 297.835 144.176C298.221 152.61 303.385 159.187 311.01 162.246C314.677 163.68 318.609 164.311 322.54 164.096C325.016 163.986 327.465 163.532 329.816 162.748C330.242 163.795 330.488 164.905 330.544 166.033V166.033Z" fill="#1A1A1A"/>
<path d="M194.965 168.545H199.099L203.079 176.062H203.249L207.229 168.545H211.363L204.996 179.83V186H201.331V179.83L194.965 168.545ZM216.483 186.256C215.159 186.256 214.014 185.974 213.048 185.412C212.088 184.844 211.346 184.054 210.824 183.043C210.301 182.026 210.04 180.847 210.04 179.506C210.04 178.153 210.301 176.972 210.824 175.96C211.346 174.943 212.088 174.153 213.048 173.591C214.014 173.023 215.159 172.739 216.483 172.739C217.807 172.739 218.949 173.023 219.909 173.591C220.875 174.153 221.619 174.943 222.142 175.96C222.665 176.972 222.926 178.153 222.926 179.506C222.926 180.847 222.665 182.026 222.142 183.043C221.619 184.054 220.875 184.844 219.909 185.412C218.949 185.974 217.807 186.256 216.483 186.256ZM216.5 183.443C217.102 183.443 217.605 183.273 218.008 182.932C218.412 182.585 218.716 182.114 218.92 181.517C219.131 180.92 219.236 180.241 219.236 179.48C219.236 178.719 219.131 178.04 218.92 177.443C218.716 176.847 218.412 176.375 218.008 176.028C217.605 175.682 217.102 175.509 216.5 175.509C215.892 175.509 215.381 175.682 214.966 176.028C214.557 176.375 214.247 176.847 214.037 177.443C213.832 178.04 213.73 178.719 213.73 179.48C213.73 180.241 213.832 180.92 214.037 181.517C214.247 182.114 214.557 182.585 214.966 182.932C215.381 183.273 215.892 183.443 216.5 183.443ZM233.682 180.426V172.909H237.312V186H233.827V183.622H233.69C233.395 184.389 232.903 185.006 232.216 185.472C231.534 185.937 230.702 186.17 229.719 186.17C228.844 186.17 228.074 185.972 227.409 185.574C226.744 185.176 226.224 184.611 225.849 183.878C225.48 183.145 225.292 182.267 225.287 181.244V172.909H228.917V180.597C228.923 181.369 229.131 181.98 229.54 182.429C229.949 182.878 230.497 183.102 231.184 183.102C231.622 183.102 232.031 183.003 232.412 182.804C232.792 182.599 233.099 182.298 233.332 181.901C233.571 181.503 233.687 181.011 233.682 180.426ZM240.216 186V172.909H243.736V175.193H243.873C244.111 174.381 244.512 173.767 245.074 173.352C245.637 172.932 246.285 172.722 247.018 172.722C247.199 172.722 247.395 172.733 247.606 172.756C247.816 172.778 248.001 172.81 248.16 172.849V176.071C247.989 176.02 247.753 175.974 247.452 175.935C247.151 175.895 246.876 175.875 246.626 175.875C246.091 175.875 245.614 175.991 245.194 176.224C244.779 176.452 244.449 176.77 244.205 177.179C243.966 177.588 243.847 178.06 243.847 178.594V186H240.216ZM199.678 192.545V210H195.988V192.545H199.678ZM206.277 202.432V210H202.646V196.909H206.106V199.219H206.26C206.55 198.457 207.035 197.855 207.717 197.412C208.399 196.963 209.226 196.739 210.197 196.739C211.106 196.739 211.899 196.938 212.575 197.335C213.251 197.733 213.777 198.301 214.152 199.04C214.527 199.773 214.714 200.648 214.714 201.665V210H211.084V202.312C211.089 201.511 210.885 200.886 210.47 200.438C210.055 199.983 209.484 199.756 208.757 199.756C208.268 199.756 207.836 199.861 207.461 200.071C207.092 200.281 206.802 200.588 206.592 200.991C206.388 201.389 206.282 201.869 206.277 202.432ZM224.616 196.909V199.636H216.536V196.909H224.616ZM218.385 210V195.963C218.385 195.014 218.57 194.227 218.939 193.602C219.314 192.977 219.826 192.509 220.474 192.196C221.121 191.884 221.857 191.727 222.681 191.727C223.238 191.727 223.746 191.77 224.206 191.855C224.672 191.94 225.019 192.017 225.246 192.085L224.599 194.812C224.456 194.767 224.28 194.724 224.07 194.685C223.866 194.645 223.655 194.625 223.439 194.625C222.905 194.625 222.533 194.75 222.323 195C222.113 195.244 222.008 195.588 222.008 196.031V210H218.385ZM232.28 210.256C230.956 210.256 229.811 209.974 228.845 209.412C227.885 208.844 227.143 208.054 226.621 207.043C226.098 206.026 225.836 204.847 225.836 203.506C225.836 202.153 226.098 200.972 226.621 199.96C227.143 198.943 227.885 198.153 228.845 197.591C229.811 197.023 230.956 196.739 232.28 196.739C233.604 196.739 234.746 197.023 235.706 197.591C236.672 198.153 237.416 198.943 237.939 199.96C238.461 200.972 238.723 202.153 238.723 203.506C238.723 204.847 238.461 206.026 237.939 207.043C237.416 208.054 236.672 208.844 235.706 209.412C234.746 209.974 233.604 210.256 232.28 210.256ZM232.297 207.443C232.899 207.443 233.402 207.273 233.805 206.932C234.209 206.585 234.513 206.114 234.717 205.517C234.927 204.92 235.032 204.241 235.032 203.48C235.032 202.719 234.927 202.04 234.717 201.443C234.513 200.847 234.209 200.375 233.805 200.028C233.402 199.682 232.899 199.509 232.297 199.509C231.689 199.509 231.177 199.682 230.763 200.028C230.354 200.375 230.044 200.847 229.834 201.443C229.629 202.04 229.527 202.719 229.527 203.48C229.527 204.241 229.629 204.92 229.834 205.517C230.044 206.114 230.354 206.585 230.763 206.932C231.177 207.273 231.689 207.443 232.297 207.443ZM241.084 210V196.909H244.604V199.193H244.74C244.979 198.381 245.379 197.767 245.942 197.352C246.504 196.932 247.152 196.722 247.885 196.722C248.067 196.722 248.263 196.733 248.473 196.756C248.683 196.778 248.868 196.81 249.027 196.849V200.071C248.856 200.02 248.621 199.974 248.319 199.935C248.018 199.895 247.743 199.875 247.493 199.875C246.959 199.875 246.481 199.991 246.061 200.224C245.646 200.452 245.317 200.77 245.072 201.179C244.834 201.588 244.714 202.06 244.714 202.594V210H241.084ZM250.904 210V196.909H254.364V199.219H254.518C254.79 198.452 255.245 197.847 255.881 197.403C256.518 196.96 257.279 196.739 258.165 196.739C259.063 196.739 259.827 196.963 260.458 197.412C261.089 197.855 261.509 198.457 261.719 199.219H261.856C262.123 198.469 262.606 197.869 263.305 197.42C264.009 196.966 264.841 196.739 265.802 196.739C267.023 196.739 268.015 197.128 268.776 197.906C269.543 198.679 269.927 199.776 269.927 201.196V210H266.305V201.912C266.305 201.185 266.111 200.639 265.725 200.276C265.339 199.912 264.856 199.73 264.276 199.73C263.617 199.73 263.103 199.94 262.733 200.361C262.364 200.776 262.18 201.324 262.18 202.006V210H258.66V201.835C258.66 201.193 258.475 200.682 258.106 200.301C257.742 199.92 257.262 199.73 256.665 199.73C256.262 199.73 255.898 199.832 255.574 200.037C255.256 200.236 255.003 200.517 254.816 200.881C254.628 201.239 254.535 201.659 254.535 202.142V210H250.904ZM276.528 210.247C275.692 210.247 274.948 210.102 274.295 209.812C273.641 209.517 273.124 209.082 272.743 208.509C272.368 207.929 272.181 207.207 272.181 206.344C272.181 205.616 272.314 205.006 272.581 204.511C272.849 204.017 273.212 203.619 273.672 203.318C274.133 203.017 274.655 202.79 275.241 202.636C275.831 202.483 276.451 202.375 277.099 202.312C277.86 202.233 278.474 202.159 278.939 202.091C279.405 202.017 279.743 201.909 279.954 201.767C280.164 201.625 280.269 201.415 280.269 201.136V201.085C280.269 200.545 280.099 200.128 279.758 199.832C279.422 199.537 278.945 199.389 278.326 199.389C277.672 199.389 277.153 199.534 276.766 199.824C276.38 200.108 276.124 200.466 275.999 200.898L272.641 200.625C272.812 199.83 273.147 199.142 273.647 198.562C274.147 197.977 274.792 197.528 275.581 197.216C276.377 196.898 277.297 196.739 278.343 196.739C279.07 196.739 279.766 196.824 280.431 196.994C281.101 197.165 281.695 197.429 282.212 197.787C282.735 198.145 283.147 198.605 283.448 199.168C283.749 199.724 283.9 200.392 283.9 201.17V210H280.456V208.185H280.354C280.144 208.594 279.863 208.955 279.51 209.267C279.158 209.574 278.735 209.815 278.241 209.991C277.746 210.162 277.175 210.247 276.528 210.247ZM277.567 207.741C278.101 207.741 278.573 207.636 278.982 207.426C279.391 207.21 279.712 206.92 279.945 206.557C280.178 206.193 280.295 205.781 280.295 205.321V203.932C280.181 204.006 280.025 204.074 279.826 204.136C279.633 204.193 279.414 204.247 279.17 204.298C278.925 204.344 278.681 204.386 278.437 204.426C278.192 204.46 277.971 204.491 277.772 204.52C277.346 204.582 276.974 204.682 276.655 204.818C276.337 204.955 276.09 205.139 275.914 205.372C275.738 205.599 275.65 205.884 275.65 206.224C275.65 206.719 275.829 207.097 276.187 207.358C276.55 207.614 277.01 207.741 277.567 207.741ZM293.68 196.909V199.636H285.796V196.909H293.68ZM287.586 193.773H291.216V205.977C291.216 206.312 291.268 206.574 291.37 206.761C291.472 206.943 291.614 207.071 291.796 207.145C291.983 207.219 292.199 207.256 292.444 207.256C292.614 207.256 292.785 207.241 292.955 207.213C293.126 207.179 293.256 207.153 293.347 207.136L293.918 209.838C293.736 209.895 293.481 209.96 293.151 210.034C292.822 210.114 292.421 210.162 291.949 210.179C291.074 210.213 290.307 210.097 289.648 209.83C288.995 209.562 288.486 209.148 288.123 208.585C287.759 208.023 287.58 207.312 287.586 206.455V193.773ZM296.045 210V196.909H299.675V210H296.045ZM297.868 195.222C297.329 195.222 296.866 195.043 296.479 194.685C296.099 194.321 295.908 193.886 295.908 193.381C295.908 192.881 296.099 192.452 296.479 192.094C296.866 191.73 297.329 191.548 297.868 191.548C298.408 191.548 298.868 191.73 299.249 192.094C299.635 192.452 299.829 192.881 299.829 193.381C299.829 193.886 299.635 194.321 299.249 194.685C298.868 195.043 298.408 195.222 297.868 195.222ZM308.498 210.256C307.175 210.256 306.03 209.974 305.064 209.412C304.104 208.844 303.362 208.054 302.839 207.043C302.317 206.026 302.055 204.847 302.055 203.506C302.055 202.153 302.317 200.972 302.839 199.96C303.362 198.943 304.104 198.153 305.064 197.591C306.03 197.023 307.175 196.739 308.498 196.739C309.822 196.739 310.964 197.023 311.925 197.591C312.89 198.153 313.635 198.943 314.157 199.96C314.68 200.972 314.942 202.153 314.942 203.506C314.942 204.847 314.68 206.026 314.157 207.043C313.635 208.054 312.89 208.844 311.925 209.412C310.964 209.974 309.822 210.256 308.498 210.256ZM308.515 207.443C309.118 207.443 309.621 207.273 310.024 206.932C310.427 206.585 310.731 206.114 310.936 205.517C311.146 204.92 311.251 204.241 311.251 203.48C311.251 202.719 311.146 202.04 310.936 201.443C310.731 200.847 310.427 200.375 310.024 200.028C309.621 199.682 309.118 199.509 308.515 199.509C307.907 199.509 307.396 199.682 306.981 200.028C306.572 200.375 306.263 200.847 306.052 201.443C305.848 202.04 305.746 202.719 305.746 203.48C305.746 204.241 305.848 204.92 306.052 205.517C306.263 206.114 306.572 206.585 306.981 206.932C307.396 207.273 307.907 207.443 308.515 207.443ZM320.933 202.432V210H317.302V196.909H320.763V199.219H320.916C321.206 198.457 321.692 197.855 322.373 197.412C323.055 196.963 323.882 196.739 324.854 196.739C325.763 196.739 326.555 196.938 327.231 197.335C327.907 197.733 328.433 198.301 328.808 199.04C329.183 199.773 329.371 200.648 329.371 201.665V210H325.74V202.312C325.746 201.511 325.541 200.886 325.126 200.438C324.711 199.983 324.14 199.756 323.413 199.756C322.925 199.756 322.493 199.861 322.118 200.071C321.748 200.281 321.459 200.588 321.248 200.991C321.044 201.389 320.939 201.869 320.933 202.432Z" fill="#1B1E21"/>
<rect x="194.471" y="232" width="148" height="6" fill="#D9D9D9"/>
<rect x="386.471" y="232" width="65" height="6" fill="#D9D9D9"/>
<rect x="194.471" y="245" width="72" height="6" fill="#D9D9D9"/>
<rect x="386.471" y="245" width="32" height="6" fill="#D9D9D9"/>
<rect x="194.471" y="258" width="132" height="6" fill="#D9D9D9"/>
<rect x="386.471" y="258" width="58" height="6" fill="#D9D9D9"/>
<rect x="194.471" y="271" width="108" height="6" fill="#D9D9D9"/>
<rect x="386.471" y="271" width="47" height="6" fill="#D9D9D9"/>
<rect x="194.471" y="284" width="148" height="6" fill="#D9D9D9"/>
<rect x="386.471" y="284" width="65" height="6" fill="#D9D9D9"/>
<path d="M431.545 298.065L378.688 389.616C377.904 390.972 377.492 392.511 377.492 394.077C377.492 395.644 377.904 397.182 378.688 398.539C379.471 399.895 380.597 401.022 381.954 401.805C383.31 402.588 384.849 403 386.415 403H492.129C493.695 403 495.234 402.588 496.59 401.805C497.947 401.022 499.073 399.895 499.856 398.539C500.64 397.182 501.052 395.644 501.052 394.077C501.052 392.511 500.64 390.972 499.856 389.616L446.999 298.065C446.216 296.708 445.09 295.582 443.733 294.799C442.377 294.016 440.838 293.604 439.272 293.604C437.706 293.604 436.167 294.016 434.811 294.799C433.454 295.582 432.328 296.708 431.545 298.065V298.065Z" fill="#A2FFD4"/>
<path d="M445.574 325.545L444.519 371.76H434.228L433.205 325.545H445.574ZM439.373 391.703C437.434 391.703 435.773 391.021 434.388 389.658C433.024 388.294 432.342 386.632 432.342 384.672C432.342 382.754 433.024 381.114 434.388 379.75C435.773 378.386 437.434 377.705 439.373 377.705C441.27 377.705 442.91 378.386 444.295 379.75C445.702 381.114 446.405 382.754 446.405 384.672C446.405 385.972 446.074 387.154 445.414 388.219C444.775 389.285 443.922 390.137 442.857 390.776C441.813 391.394 440.652 391.703 439.373 391.703Z" fill="white"/>
<rect x="341.471" y="115" width="115" height="4.00001" transform="rotate(-90 341.471 115)" fill="#1B1E21"/>
<line x1="489.785" y1="346.256" x2="496.727" y2="334.686" stroke="#A2FFD4" stroke-width="4" stroke-linecap="round"/>
<line x1="385.066" y1="354.336" x2="371.807" y2="356.838" stroke="#A2FFD4" stroke-width="4" stroke-linecap="round"/>
<line x1="496.555" y1="357.198" x2="523.858" y2="345.915" stroke="#A2FFD4" stroke-width="4" stroke-linecap="round"/>
<line x1="390.972" y1="342.08" x2="364.396" y2="329.176" stroke="#A2FFD4" stroke-width="4" stroke-linecap="round"/>
<line x1="500.748" y1="370.323" x2="517.794" y2="372.912" stroke="#A2FFD4" stroke-width="4" stroke-linecap="round"/>
<line x1="397.993" y1="330.224" x2="388.6" y2="315.767" stroke="#A2FFD4" stroke-width="4" stroke-linecap="round"/>
<line x1="361.971" y1="347.5" x2="361.971" y2="355.5" stroke="#A2FFD4" stroke-linecap="round"/>
<line x1="341.471" y1="362" x2="341.471" y2="381" stroke="#A2FFD4" stroke-width="2" stroke-linecap="round"/>
<line x1="365.971" y1="351.5" x2="357.971" y2="351.5" stroke="#A2FFD4" stroke-linecap="round"/>
<line x1="350.471" y1="372" x2="331.471" y2="372" stroke="#A2FFD4" stroke-width="2" stroke-linecap="round"/>
<line x1="136.471" y1="108" x2="136.471" y2="120" stroke="#A2FFD4" stroke-width="2" stroke-linecap="round"/>
<line x1="142.471" y1="114" x2="130.471" y2="114" stroke="#A2FFD4" stroke-width="2" stroke-linecap="round"/>
<line x1="133.031" y1="58" x2="133.031" y2="88" stroke="#A2FFD4" stroke-linecap="round"/>
<line x1="173.531" y1="70.5" x2="173.531" y2="84.5" stroke="#A2FFD4" stroke-width="2" stroke-linecap="round"/>
<line x1="148.031" y1="73" x2="118.031" y2="73" stroke="#A2FFD4" stroke-linecap="round"/>
<line x1="180.531" y1="77.5" x2="166.531" y2="77.5" stroke="#A2FFD4" stroke-width="2" stroke-linecap="round"/>
</svg>
