<svg version="1.1" id="Layer_1" width="465" height="351" xmlns="http://www.w3.org/2000/svg" x="0" y="0" viewBox="0 0 465 351" style="enable-background:new 0 0 465 351" xml:space="preserve"><style type="text/css">.st0{fill:#fff;stroke:#502160;stroke-width:2.3755;stroke-linecap:round;stroke-linejoin:round;stroke-miterlimit:10}.st2{fill:#502160}.st3{fill-rule:evenodd;clip-rule:evenodd;fill:#fff}.st4{fill:#cda5dc}.st5,.st7{fill:none;stroke:#fff;stroke-width:2.3755;stroke-linecap:round;stroke-linejoin:round;stroke-miterlimit:10}.st7{stroke:#502160}.st8{fill:#fff}</style><g><g><path class="st0" d="M108.1 264.5h319.5c0 9.3-7.5 16.9-16.9 16.9H125c-9.3 0-16.9-7.6-16.9-16.9h0z"/><path d="M108.1 264.6c.2 9.1 7.7 16.4 16.9 16.4h285.8c9.3 0 16.9-7.5 16.9-16.9h-1.9c-2.2 6.7-8.6 11.5-16 11.5H124c-7.3.1-13.5-4.5-15.9-11z" style="fill-rule:evenodd;clip-rule:evenodd;fill:#502160"/><path class="st2" d="M233.3 264.4h69.1c0 4.6-3.7 8.3-8.3 8.3h-52.6c-4.5 0-8.2-3.7-8.2-8.3z"/><path class="st3" d="M137 103.3c-3.3 0-5.9 2.7-5.9 5.9v155.3h273.6V109.2c0-3.3-2.7-5.9-5.9-5.9H137zm254.9 12H143.8v149.1h248.1V115.3z"/><path class="st2" d="M131 264.5h-1.2c0 .7.5 1.2 1.2 1.2v-1.2zm273.7 0v1.2c.7 0 1.2-.5 1.2-1.2h-1.2zM143.8 115.3v-1.2c-.7 0-1.2.5-1.2 1.2h1.2zm248.1 0h1.2c0-.7-.5-1.2-1.2-1.2v1.2zM143.8 264.4h-1.2c0 .7.5 1.2 1.2 1.2v-1.2zm248.1 0v1.2c.7 0 1.2-.5 1.2-1.2h-1.2zM132.2 109.2c0-2.6 2.1-4.8 4.8-4.8V102c-3.9 0-7.1 3.2-7.1 7.1h2.3zm0 155.3V109.2h-2.4v155.3h2.4zm272.5-1.2H131v2.4h273.6v-2.4zm-1.2-154.1v155.3h2.4V109.2h-2.4zm-4.8-4.8c2.6 0 4.8 2.1 4.8 4.8h2.4c0-3.9-3.2-7.1-7.1-7.1v2.3zm-261.7 0h261.7V102H137v2.4zm6.8 12h248.1V114H143.8v2.4zm1.2 148V115.3h-2.4v149.1h2.4zm246.9-1.2H143.8v2.4h248.1v-2.4zm-1.2-147.9v149.1h2.4V115.3h-2.4z"/><circle class="st4" cx="265.2" cy="164.3" r="30.7"/><path class="st5" d="m253.4 166.7 9.8 10.4 19.5-26.3"/><path class="st0" d="M210.3 209.6h115.1c8 0 14.4 6.5 14.4 14.4h0c0 8-6.5 14.4-14.4 14.4H210.3c-8 0-14.4-6.5-14.4-14.4h0c0-8 6.4-14.4 14.4-14.4z"/><path d="M196.2 221c-.2 1-.3 2-.3 3 0 8 6.5 14.4 14.4 14.4h115.1c8 0 14.4-6.5 14.4-14.4 0-1-.1-2.1-.3-3-1.4 6.5-7.2 11.4-14.1 11.4H210.3c-6.9 0-12.7-4.9-14.1-11.4z" style="fill-rule:evenodd;clip-rule:evenodd;fill:#cda5dc"/><path class="st7" d="M210.3 209.6h115.1c8 0 14.4 6.5 14.4 14.4h0c0 8-6.5 14.4-14.4 14.4H210.3c-8 0-14.4-6.5-14.4-14.4h0c0-8 6.4-14.4 14.4-14.4z"/><circle class="st2" cx="219" cy="224" r="6.1"/><circle class="st2" cx="281.2" cy="224" r="6.1"/><circle class="st2" cx="239.7" cy="224" r="6.1"/><circle class="st2" cx="302" cy="224" r="6.1"/><circle transform="rotate(-80.781 260.468 223.999)" class="st2" cx="260.5" cy="224" r="6.1"/><path class="st0" d="M189.9 162.7c-8.9-5.3-16.5-9.8-21.8-12.9l-8.9 15c1.4.8 8.9 5.3 22.7 11.4 15.6 4.5 14.3-9.8 8-13.5zm2.9-36.5c-5.5-1.2-12.6 1-12.6 1l-12 20.2c9.8-1.2 27.5-4.2 30.4-9.3 3.8-6.2-.7-10.8-5.8-11.9z"/><path class="st0" d="M179 184c-1.8-2.8-9.5-11.4-12.8-15.3l-4.4-2.3-8.4 8.3c1.8 2.8 7.3 10.1 15 16.9 9.6 8.4 12.8-4.1 10.6-7.6zm-36.5 3.5c5.1-7.5 8.1-13.8 13.4-8.5l6.8 7.6c5 13.1-4.7 19.5-11.1 15.5-6.3-4-13.9-9.1-9.1-14.6z"/><path class="st0" d="m150.1 55.2 47.4 28.1c5.6 3.3 7.5 10.6 4.2 16.3l-62.3 105.2c-3.3 5.6-10.6 7.5-16.3 4.2l-47.4-28.1c-5.6-3.3-7.5-10.6-4.2-16.3l62.3-105.2c3.3-5.7 10.6-7.5 16.3-4.2z"/><path class="st4" d="M146 63.4 192.6 91c2.8 1.7 3.8 5.3 2.1 8.1l-56.1 94.8c-1.7 2.8-5.3 3.8-8.1 2.1L84 168.4c-2.8-1.7-3.8-5.3-2.1-8.1L138 65.5c1.6-2.8 5.2-3.8 8-2.1z"/><path class="st8" d="M121.3 71.7c-7.5 6.6-14.2 21.2-36.6 34.3-18.3 10.7-31.4 33.8-40.3 48.8-3.7 6.2-15.1 15.1-24.2 18 0 0 4.9 9.8 7.5 23.3 2.6 13.5 3.4 26.9 3.4 26.9s12.7-10.1 22.4-15 31.2-14 31.2-14-16.2-14-18.2-20.4c-2-6.4 8.1-11.5 8.1-11.5s17.4-6.4 27.6-34.8c6.6-18.6 21.8-27.4 27.9-42 2.6-6.4-2.9-21.2-8.8-13.6z"/><path class="st7" d="M20.3 172.8c10.1-4.5 21.3-12.4 26.4-20.9 6.3-10.7 14.8-29.4 37.9-45.7 21.2-15 29.1-27.7 36.6-34.3 5.9-7.5 11.4 7.2 8.7 13.6-6.1 14.6-21 23.8-27.7 42.4-6.8 16.2-17 35.5-42 38.4m-29.1 56.5c11.1-11.5 48.8-28 61.1-31.8"/><path class="st8" d="M144 186.1c3.2-3.3 6.8-1.2 8.2.3-.1 2.3 14.6 7.6 9.2 13.8-5.3 6.3-13.2-.6-15.6-2.2-5.5-3.9-5.8-7.7-1.8-11.9z"/><path class="st7" d="M156.6 187.9c-1-.7-9-7.9-14.2-.4-4.7 5.5 2.8 10.6 9.2 14.6 6.3 4 16-2.4 11.1-15.5"/><path class="st5" d="M169 117.9c-1.3-6.9-5.5-13.2-12-17.1-6.5-3.9-14.1-4.5-20.8-2.3m23.2 22.2c-.9-4.4-3.5-8.4-7.7-10.9s-9-2.9-13.3-1.5"/><path class="st5" d="M179 115.4c-1.9-9.6-7.7-18.5-16.8-23.8-9.1-5.4-19.6-6.3-29-3.3"/><path class="st3" d="M138.1 138.6c2.3-.6 3.8-3.1 3.2-5.4-.6-2.3-3.1-3.8-5.4-3.2-2.3.6-3.8 3.1-3.2 5.4.6 2.4 3 3.8 5.4 3.2zM112.6 163l13-22.1c-2.8-5-1.9-11.2 2.2-15.3 4.1-4 10.4-4.8 15.4-1.9 5 3 7.4 8.8 5.8 14.4s-6.7 9.3-12.4 9.3l-7.6 12.8-8 1.2 2.7 7.7-8.8 2.5-2.3-8.6z"/><path class="st2" d="M71.7 177.7c-4.9-5.3-1.8-11.2.3-13.4l-3.7 1.2c-10.1 15.1 6.9 25.2 11.1 29.3 2.2-.8 5.3-.6 13.5-3.2-5.1-2.5-16.4-8.7-21.2-13.9z"/></g></g></svg>
